<?xml version="1.0" encoding="UTF-8" standalone="no"?>
<svg
   xmlns:dc="http://purl.org/dc/elements/1.1/"
   xmlns:cc="http://creativecommons.org/ns#"
   xmlns:rdf="http://www.w3.org/1999/02/22-rdf-syntax-ns#"
   xmlns:svg="http://www.w3.org/2000/svg"
   xmlns="http://www.w3.org/2000/svg"
   xmlns:sodipodi="http://sodipodi.sourceforge.net/DTD/sodipodi-0.dtd"
   xmlns:inkscape="http://www.inkscape.org/namespaces/inkscape"
   inkscape:version="1.0beta2 (2b71d25, 2019-12-03)"
   sodipodi:docname="only-bug-orig.svg"
   id="svg2359"
   version="1.1"
   width="242.64015pt"
   viewBox="0 -36 242.64063 216.35431"
   height="216.35431pt">
  <metadata
     id="metadata2365">
    <rdf:RDF>
      <cc:Work
         rdf:about="">
        <dc:format>image/svg+xml</dc:format>
        <dc:type
           rdf:resource="http://purl.org/dc/dcmitype/StillImage" />
        <dc:title></dc:title>
      </cc:Work>
    </rdf:RDF>
  </metadata>
  <defs
     id="defs2363" />
  <sodipodi:namedview
     inkscape:current-layer="svg2359"
     inkscape:window-maximized="0"
     inkscape:window-y="39"
     inkscape:window-x="179"
     inkscape:cy="104.99764"
     inkscape:cx="61.435968"
     inkscape:zoom="1.1850586"
     fit-margin-bottom="0"
     fit-margin-right="0"
     fit-margin-left="0"
     fit-margin-top="0"
     showgrid="false"
     id="namedview2361"
     inkscape:window-height="975"
     inkscape:window-width="1581"
     inkscape:pageshadow="2"
     inkscape:pageopacity="0"
     guidetolerance="10"
     gridtolerance="10"
     objecttolerance="10"
     borderopacity="1"
     inkscape:document-rotation="0"
     bordercolor="#666666"
     pagecolor="#ffffff" />
  <path
     style="stroke-width:0.999999"
     inkscape:connector-curvature="0"
     d="m 105.34766,5.2838984 c -2.63282,0 -5.19532,-1.34375 -6.64062,-3.76953 L 83.30079,-24.313762 c -2.1875,-3.66406 -0.98829,-8.40625 2.67578,-10.59375 3.66405,-2.1875 8.40624,-0.98828 10.59374,2.67578 l 15.40626,25.8320304 c 2.18749,3.66407 0.98827,8.40625 -2.67578,10.59375 -1.24219,0.73829 -2.60547,1.08985 -3.95313,1.08985 z m 0,0"
     fill="#79ced5"
     id="path2319" />
  <path
     style="stroke-width:0.999999"
     inkscape:connector-curvature="0"
     d="m 137.29298,5.2838984 c -1.34767,0 -2.71094,-0.35156 -3.94923,-1.08985 -3.66797,-2.1875 -4.86718,-6.92968 -2.67968,-10.59375 l 15.40625,-25.8320304 c 2.1875,-3.66406 6.92969,-4.86328 10.59375,-2.67578 3.66405,2.1836 4.86328,6.92969 2.67968,10.59375 L 143.9375,1.5143684 c -1.44921,2.42578 -4.01172,3.76953 -6.64452,3.76953 z m 0,0"
     fill="#79ced5"
     id="path2321" />
  <path
     style="stroke-width:0.999999"
     inkscape:connector-curvature="0"
     d="m 151.38282,18.615928 c 0,16.60156 -13.46094,30.0625 -30.0625,30.0625 -16.60156,0 -30.06251,-13.46094 -30.06251,-30.0625 0,-16.6015596 13.46095,-30.0625 30.06251,-30.0625 16.60156,0 30.0625,13.4609404 30.0625,30.0625 z m 0,0"
     fill="#6d80d6"
     id="path2323" />
  <g
     transform="translate(-134.67969,-65.137982)"
     fill="#5169ce"
     id="g2339">
    <path
       inkscape:connector-curvature="0"
       d="m 286.0625,83.753906 c 0,16.605474 -13.45703,30.062504 -30.0625,30.062504 -2.8125,0 -5.54297,-0.39453 -8.12891,-1.125 12.65235,-3.53516 21.9336,-15.144535 21.9336,-28.937504 0,-13.785156 -9.28125,-25.40625 -21.9336,-28.9375 2.58594,-0.730468 5.31641,-1.125 8.12891,-1.125 16.60547,0 30.0625,13.464844 30.0625,30.0625 z m 0,0"
       id="path2325" />
    <path
       inkscape:connector-curvature="0"
       d="m 356.99609,131.12109 h -39.15234 c -4.26953,0 -7.72656,-3.45703 -7.72656,-7.72656 0,-4.26562 3.45703,-7.72656 7.72656,-7.72656 h 31.42578 v -9.58984 c 0,-4.26563 3.45703,-7.726568 7.72656,-7.726568 4.26563,0 7.72657,3.460938 7.72657,7.726568 v 17.3164 c 0,4.26953 -3.46094,7.72656 -7.72657,7.72656 z m 0,0"
       id="path2327" />
    <path
       inkscape:connector-curvature="0"
       d="m 356.99609,211.51172 c -4.26953,0 -7.72656,-3.46094 -7.72656,-7.72656 v -9.58985 h -31.42578 c -4.26953,0 -7.72656,-3.46094 -7.72656,-7.72656 0,-4.26953 3.45703,-7.72656 7.72656,-7.72656 h 39.15234 c 4.26563,0 7.72657,3.45703 7.72657,7.72656 v 17.31641 c 0,4.26562 -3.46094,7.72656 -7.72657,7.72656 z m 0,0"
       id="path2329" />
    <path
       inkscape:connector-curvature="0"
       d="m 369.59375,162.65625 h -51.75 c -4.26953,0 -7.72656,-3.45703 -7.72656,-7.72656 0,-4.26563 3.45703,-7.72266 7.72656,-7.72266 h 51.75 c 4.26562,0 7.72656,3.45703 7.72656,7.72266 0,4.26953 -3.46094,7.72656 -7.72656,7.72656 z m 0,0"
       id="path2331" />
    <path
       inkscape:connector-curvature="0"
       d="m 155.00391,211.51172 c -4.26563,0 -7.72657,-3.46094 -7.72657,-7.72656 v -17.31641 c 0,-4.26953 3.46094,-7.72656 7.72657,-7.72656 h 39.15234 c 4.26953,0 7.72656,3.45703 7.72656,7.72656 0,4.26562 -3.45703,7.72656 -7.72656,7.72656 h -31.42578 v 9.58985 c 0,4.26562 -3.45703,7.72656 -7.72656,7.72656 z m 0,0"
       id="path2333" />
    <path
       inkscape:connector-curvature="0"
       d="m 194.15625,131.12109 h -39.15234 c -4.26563,0 -7.72657,-3.45703 -7.72657,-7.72656 v -17.3164 c 0,-4.26563 3.46094,-7.726568 7.72657,-7.726568 4.26953,0 7.72656,3.460938 7.72656,7.726568 v 9.58984 h 31.42578 c 4.26953,0 7.72656,3.46094 7.72656,7.72656 0,4.26953 -3.45703,7.72656 -7.72656,7.72656 z m 0,0"
       id="path2335" />
    <path
       inkscape:connector-curvature="0"
       d="m 194.15625,162.65625 h -51.75 c -4.26563,0 -7.72656,-3.45703 -7.72656,-7.72656 0,-4.26563 3.46093,-7.72266 7.72656,-7.72266 h 51.75 c 4.26953,0 7.72656,3.45703 7.72656,7.72266 0,4.26953 -3.45703,7.72656 -7.72656,7.72656 z m 0,0"
       id="path2337" />
  </g>
  <path
     style="stroke-width:0.999999"
     inkscape:connector-curvature="0"
     d="m 121.32032,180.3503 c -33.56251,0 -60.76954,-27.20703 -60.76954,-60.76953 V 40.694058 c 0,-5.69532 4.61719,-10.3086 10.30859,-10.3086 h 100.92188 c 5.6914,0 10.30859,4.61328 10.30859,10.3086 v 78.886712 c 0,33.5625 -27.20703,60.76953 -60.76952,60.76953 z m 0,0"
     fill="#a4b0e5"
     id="path2341" />
  <path
     style="stroke-width:0.999999"
     inkscape:connector-curvature="0"
     d="m 182.08984,40.694058 v 78.890622 c 0,33.56251 -27.20703,60.76954 -60.76952,60.76954 -3.39845,0 -6.72656,-0.27735 -9.97267,-0.82423 28.82422,-4.74999 50.79689,-29.78516 50.79689,-59.94531 V 40.694058 c 0,-5.69922 -4.61328,-10.3125 -10.30861,-10.3125 h 19.94142 c 5.69922,0 10.31249,4.61328 10.31249,10.3125 z m 0,0"
     fill="#8998dd"
     id="path2343" />
  <path
     style="stroke-width:0.999999"
     inkscape:connector-curvature="0"
     d="m 92.19141,69.080768 c -4.26563,0 -7.72656,-3.46093 -7.72656,-7.72656 v -28.15625 c 0,-4.26953 3.46093,-7.72656 7.72656,-7.72656 4.26562,0 7.72657,3.45703 7.72657,7.72656 v 28.15625 c 0,4.26563 -3.46095,7.72656 -7.72657,7.72656 z m 0,0"
     fill="#8998dd"
     id="path2345" />
  <path
     style="stroke-width:0.999999"
     inkscape:connector-curvature="0"
     d="m 150.44922,69.080768 c -4.26954,0 -7.72656,-3.46093 -7.72656,-7.72656 v -28.15625 c 0,-4.26953 3.46094,-7.72656 7.72656,-7.72656 4.26562,0 7.72656,3.45703 7.72656,7.72656 v 28.15625 c 0,4.26563 -3.46094,7.72656 -7.72656,7.72656 z m 0,0"
     fill="#8998dd"
     id="path2347" />
  <path
     style="stroke-width:0.999999"
     inkscape:connector-curvature="0"
     d="m 129.21875,115.43234 h -15.79687 c -4.26563,0 -7.72657,-3.45704 -7.72657,-7.72656 0,-4.26564 3.46094,-7.722672 7.72657,-7.722672 h 15.79687 c 4.26562,0 7.72656,3.457032 7.72656,7.722672 0,4.26952 -3.46094,7.72656 -7.72656,7.72656 z m 0,0"
     fill="#79ced5"
     id="path2349" />
  <path
     style="stroke-width:0.999999"
     inkscape:connector-curvature="0"
     d="m 129.21875,140.19405 h -15.79687 c -4.26563,0 -7.72657,-3.46094 -7.72657,-7.72656 0,-4.26953 3.46094,-7.72656 7.72657,-7.72656 h 15.79687 c 4.26562,0 7.72656,3.45703 7.72656,7.72656 0,4.26562 -3.46094,7.72656 -7.72656,7.72656 z m 0,0"
     fill="#79ced5"
     id="path2351" />
</svg>
